<svg width="48" height="48" viewBox="0 0 48 48" fill="none" xmlns="http://www.w3.org/2000/svg">
<path d="M43.8817 26.2252L41.7519 19.6656C41.7528 19.6686 41.7532 19.6716 41.7541 19.6746C41.753 19.6712 41.7524 19.6677 41.7515 19.6643C41.7514 19.6641 41.7514 19.664 41.7514 19.6637C41.7514 19.6636 41.7514 19.6635 41.7514 19.6635L37.5232 6.64627C37.2919 5.96054 36.6555 5.50031 35.9259 5.50598C35.1942 5.50975 34.5752 5.96113 34.3489 6.6563L30.3355 19.0121H17.6719L13.651 6.65547C13.4249 5.96089 12.8058 5.50964 12.0742 5.50586C12.0713 5.50586 12.0684 5.50586 12.0654 5.50586C11.3449 5.50586 10.7072 5.96325 10.4735 6.65665L6.25687 19.6622L6.25628 19.6639C6.25628 19.664 6.25628 19.6641 6.25628 19.6642C6.25522 19.6675 6.25474 19.6708 6.25368 19.6741C6.25463 19.6712 6.25498 19.6681 6.25592 19.6651L4.11825 26.2252C3.79668 27.2155 4.14563 28.2917 4.98677 28.9036L23.4448 42.3147C23.4475 42.3167 23.4506 42.3179 23.4533 42.3199C23.4612 42.3256 23.4689 42.3314 23.4769 42.3367C23.4693 42.3316 23.4622 42.3261 23.4548 42.3209C23.4548 42.3209 23.4548 42.3207 23.4547 42.3207C23.4559 42.3217 23.4573 42.3223 23.4586 42.3231C23.4596 42.3238 23.4607 42.3243 23.4618 42.325C23.4619 42.3251 23.462 42.3252 23.4622 42.3253C23.4908 42.3452 23.5204 42.3633 23.5511 42.38C23.5553 42.3823 23.5591 42.3853 23.5634 42.3875C23.5635 42.3875 23.5635 42.3877 23.5636 42.3877C23.5662 42.389 23.5686 42.3906 23.5712 42.3919C23.5732 42.3928 23.5753 42.3934 23.5772 42.3944C23.5786 42.3951 23.5801 42.3956 23.5815 42.3962C23.585 42.3978 23.5887 42.3989 23.5922 42.4006C23.6082 42.4083 23.6251 42.4146 23.6416 42.4213C23.6571 42.4277 23.6721 42.4351 23.6879 42.4406C23.6886 42.4409 23.6892 42.4412 23.6899 42.4415C23.6925 42.4424 23.6948 42.4437 23.6975 42.4446C23.7009 42.4458 23.704 42.4471 23.7073 42.4482C23.7086 42.4485 23.7099 42.4488 23.7112 42.4491C23.7154 42.4504 23.7198 42.451 23.724 42.4522C23.7255 42.4527 23.7273 42.4529 23.7289 42.4534C23.7511 42.4601 23.7741 42.4649 23.797 42.47C23.806 42.472 23.8146 42.4749 23.8237 42.4765C23.825 42.4767 23.8262 42.4772 23.8276 42.4775C23.8305 42.478 23.8333 42.4791 23.8363 42.4796C23.8412 42.4804 23.8459 42.4819 23.8508 42.4826C23.8547 42.4832 23.8587 42.483 23.8626 42.4836C23.8633 42.4837 23.8639 42.4836 23.8646 42.4837C23.8649 42.4837 23.865 42.4837 23.8652 42.4837C23.9088 42.49 23.9529 42.4943 23.9979 42.4943C23.9981 42.4943 23.9983 42.4943 23.9987 42.4943C23.9988 42.4943 23.9989 42.4943 23.9989 42.4943H23.9991C23.9992 42.4943 23.9993 42.4943 23.9994 42.4943C24.0445 42.4943 24.0886 42.49 24.1323 42.4837C24.1324 42.4837 24.1326 42.4837 24.1328 42.4837C24.1335 42.4836 24.1342 42.4837 24.1349 42.4836C24.1388 42.483 24.1429 42.4832 24.1468 42.4826C24.1518 42.4818 24.1565 42.4804 24.1614 42.4796C24.1644 42.4791 24.1671 42.478 24.17 42.4775C24.1713 42.4772 24.1725 42.4767 24.1738 42.4765C24.183 42.4747 24.1919 42.4719 24.2011 42.4699C24.2236 42.4649 24.2463 42.4601 24.2683 42.4535C24.2699 42.453 24.2714 42.4529 24.2729 42.4524C24.2773 42.4511 24.2818 42.4506 24.2862 42.4493C24.2875 42.4488 24.2889 42.4487 24.2902 42.4483C24.2936 42.4472 24.2969 42.4458 24.3002 42.4446C24.3028 42.4437 24.3052 42.4424 24.3078 42.4415C24.3085 42.4412 24.3091 42.4409 24.3098 42.4406C24.3265 42.4347 24.3423 42.4269 24.3587 42.4202C24.374 42.4138 24.3895 42.4082 24.4044 42.4011C24.4081 42.3993 24.412 42.3983 24.4155 42.3965C24.4169 42.3958 24.4186 42.3953 24.42 42.3946C24.422 42.3937 24.4241 42.3931 24.4261 42.392C24.4288 42.3906 24.4314 42.389 24.434 42.3877C24.434 42.3877 24.4341 42.3876 24.4341 42.3875C24.4385 42.3853 24.4424 42.3821 24.4468 42.3797C24.4772 42.3632 24.5067 42.3452 24.5352 42.3255C24.5374 42.3239 24.54 42.3228 24.5424 42.3211C24.5429 42.3206 24.5436 42.3204 24.5442 42.3199C24.547 42.3179 24.5501 42.3166 24.5529 42.3146L43.0137 28.9032C43.8544 28.2917 44.2033 27.2155 43.8817 26.2252ZM35.9376 7.86574L39.558 19.0121H32.3172L35.9376 7.86574ZM38.924 20.8969L37.4466 22.7898L26.5507 36.7507L31.7048 20.8969H38.924ZM23.1026 41.8435C23.1035 41.8464 23.105 41.849 23.106 41.8519C23.105 41.849 23.1035 41.8464 23.1026 41.8435ZM21.4495 36.7517L9.08299 20.8969H16.3026L21.4495 36.7517ZM12.0628 7.86562L15.6899 19.0121H8.44906L12.0628 7.86562ZM6.09508 27.3791C5.91619 27.2489 5.84208 27.0192 5.91064 26.8082L7.49971 21.9316L19.1433 36.8595L6.09508 27.3791ZM23.4123 42.2898C23.4087 42.2869 23.4051 42.2837 23.4016 42.2806C23.4009 42.28 23.4002 42.2792 23.3993 42.2786C23.3923 42.2727 23.3853 42.2667 23.3785 42.2606C23.365 42.2489 23.3518 42.237 23.3392 42.2244C23.3402 42.2254 23.3414 42.2262 23.3425 42.2272C23.3439 42.2285 23.3454 42.2295 23.3468 42.2308C23.3739 42.2567 23.4023 42.281 23.432 42.3034C23.4324 42.3036 23.4326 42.304 23.433 42.3042C23.4344 42.3053 23.4356 42.3066 23.437 42.3078C23.4288 42.3019 23.4204 42.2962 23.4123 42.2898ZM23.9994 38.5022L20.9708 29.1728L18.2843 20.8969H29.7229L23.9994 38.5022ZM24.6193 42.2606C24.6122 42.2667 24.6054 42.2728 24.5982 42.2787C24.5973 42.2794 24.5965 42.2803 24.5957 42.281C24.592 42.2839 24.5886 42.2871 24.5851 42.2901C24.5773 42.2963 24.5688 42.302 24.5606 42.308C24.5621 42.3069 24.5632 42.3055 24.5648 42.3046C24.565 42.3043 24.5652 42.3041 24.5655 42.3039C24.5952 42.2814 24.6235 42.2574 24.6503 42.2315C24.6514 42.2305 24.6527 42.2296 24.6537 42.2287C24.6552 42.2274 24.6567 42.2263 24.658 42.225C24.6455 42.2372 24.6324 42.249 24.6193 42.2606ZM41.9054 27.3787L28.859 36.8566L40.5065 21.9328L42.0892 26.8072C42.1579 27.0192 42.0839 27.2489 41.9054 27.3787Z" fill="#D8EAF3"/>
</svg>
